<svg width="183.00000000000003" height="44.009" xmlns="http://www.w3.org/2000/svg" data-name="Layer 2">
 <title>logo</title>

 <g>
  <title>Layer 1</title>
  <text fill="#000000" x="68.08576" y="35.2748" id="svg_10" font-size="36" font-family="'Rounded Mplus 1c ExtraBold'" text-anchor="start" xml:space="preserve" font-weight="normal" font-style="normal" stroke-width="3">Genda</text>
  <g stroke="null" id="svg_43">
   <g stroke="null" id="svg_6">
    <path stroke="null" id="svg_7" fill="#fd646f" d="m53.26021,8.54986l0,5.63878l-35.37871,0l0,-5.63878c0,-0.84289 0.51287,-1.5752 1.26635,-1.94281c0.33083,-0.16257 0.70757,-0.25411 1.10806,-0.25411l30.62989,0c0.91098,0 1.70245,0.47454 2.09977,1.17169c0.17571,0.30611 0.27464,0.65468 0.27464,1.02523z"/>
    <path stroke="null" id="svg_8" fill="#fc4755" d="m27.37915,6.35293l0,4.10093c0,0.40423 -0.35458,0.73231 -0.79147,0.73231l-3.64076,0c-0.43689,0 -0.79147,-0.32807 -0.79147,-0.73231l0,-4.10093l5.2237,0z"/>
    <path stroke="null" id="svg_9" fill="#fc4755" d="m47.71993,6.35293l0,4.10093c0,0.40423 -0.35458,0.73231 -0.79147,0.73231l-3.64076,0c-0.43689,0 -0.79147,-0.32807 -0.79147,-0.73231l0,-4.10093l5.2237,0z"/>
    <path stroke="null" id="svg_11" fill="#fc4755" d="m19.14786,6.60704l0,7.58159l-1.26635,0l0,-5.63878c0,-0.84289 0.51287,-1.5752 1.26635,-1.94281z"/>
    <g stroke="null" id="svg_12" fill="#e6e6e6">
     <path stroke="null" id="svg_13" d="m24.37156,18.5693l4.07211,0c0.21852,0 0.39573,0.16396 0.39573,0.36615l0,3.76773c0,0.20219 -0.17721,0.36615 -0.39573,0.36615l-4.07211,0c-0.21852,0 -0.39573,-0.16396 -0.39573,-0.36615l0,-3.76773c0,-0.20219 0.17721,-0.36615 0.39573,-0.36615z"/>
     <path stroke="null" id="svg_14" d="m24.37156,24.1678l4.07211,0c0.21852,0 0.39573,0.16396 0.39573,0.36615l0,3.76846c0,0.20219 -0.17721,0.36615 -0.39573,0.36615l-4.07211,0c-0.21852,0 -0.39573,-0.16396 -0.39573,-0.36615l0,-3.76846c0,-0.20219 0.17721,-0.36615 0.39573,-0.36615z"/>
     <path stroke="null" id="svg_15" d="m24.37156,29.76704l4.07211,0c0.21852,0 0.39573,0.16396 0.39573,0.36615l0,3.76773c0,0.20219 -0.17721,0.36615 -0.39573,0.36615l-4.07211,0c-0.21852,0 -0.39573,-0.16396 -0.39573,-0.36615l0,-3.76773c0,-0.20219 0.17721,-0.36615 0.39573,-0.36615z"/>
     <path stroke="null" id="svg_16" d="m30.42235,18.5693l4.15917,0c0.21852,0 0.39573,0.16396 0.39573,0.36615l0,3.76773c0,0.20219 -0.17721,0.36615 -0.39573,0.36615l-4.15917,0c-0.21852,0 -0.39573,-0.16396 -0.39573,-0.36615l0,-3.76773c0,-0.20219 0.17721,-0.36615 0.39573,-0.36615z"/>
     <path stroke="null" id="svg_17" d="m30.42235,24.1678l4.15917,0c0.21852,0 0.39573,0.16396 0.39573,0.36615l0,3.76846c0,0.20219 -0.17721,0.36615 -0.39573,0.36615l-4.15917,0c-0.21852,0 -0.39573,-0.16396 -0.39573,-0.36615l0,-3.76846c0,-0.20219 0.17721,-0.36615 0.39573,-0.36615z"/>
     <path stroke="null" id="svg_18" d="m30.42235,29.76704l4.15917,0c0.21852,0 0.39573,0.16396 0.39573,0.36615l0,3.76773c0,0.20219 -0.17721,0.36615 -0.39573,0.36615l-4.15917,0c-0.21852,0 -0.39573,-0.16396 -0.39573,-0.36615l0,-3.76773c0,-0.20219 0.17721,-0.36615 0.39573,-0.36615z"/>
     <path stroke="null" id="svg_19" d="m36.5602,18.5693l4.15917,0c0.21852,0 0.39573,0.16396 0.39573,0.36615l0,3.76773c0,0.20219 -0.17721,0.36615 -0.39573,0.36615l-4.15917,0c-0.21852,0 -0.39573,-0.16396 -0.39573,-0.36615l0,-3.76773c0,-0.20219 0.17721,-0.36615 0.39573,-0.36615z"/>
     <path stroke="null" id="svg_20" d="m36.5602,24.1678l4.15917,0c0.21852,0 0.39573,0.16396 0.39573,0.36615l0,3.76846c0,0.20219 -0.17721,0.36615 -0.39573,0.36615l-4.15917,0c-0.21852,0 -0.39573,-0.16396 -0.39573,-0.36615l0,-3.76846c0,-0.20219 0.17721,-0.36615 0.39573,-0.36615z"/>
     <path stroke="null" id="svg_21" d="m36.5602,29.76704l4.15917,0c0.21852,0 0.39573,0.16396 0.39573,0.36615l0,3.76773c0,0.20219 -0.17721,0.36615 -0.39573,0.36615l-4.15917,0c-0.21852,0 -0.39573,-0.16396 -0.39573,-0.36615l0,-3.76773c0,-0.20219 0.17721,-0.36615 0.39573,-0.36615z"/>
     <path stroke="null" id="svg_22" d="m47.1659,18.93546l0,3.76773c0,0.20219 -0.17721,0.36615 -0.39573,0.36615l-4.07211,0c-0.21852,0 -0.39573,-0.16396 -0.39573,-0.36615l0,-3.76773c0,-0.20219 0.17721,-0.36615 0.39573,-0.36615l4.07211,0c0.21852,0 0.39573,0.16396 0.39573,0.36615z"/>
     <path stroke="null" id="svg_23" d="m42.69805,24.1678l4.07211,0c0.21852,0 0.39573,0.16396 0.39573,0.36615l0,3.76846c0,0.20219 -0.17721,0.36615 -0.39573,0.36615l-4.07211,0c-0.21852,0 -0.39573,-0.16396 -0.39573,-0.36615l0,-3.76846c0,-0.20219 0.17721,-0.36615 0.39573,-0.36615z"/>
     <path stroke="null" id="svg_24" d="m42.69805,29.76704l4.07211,0c0.21852,0 0.39573,0.16396 0.39573,0.36615l0,3.76773c0,0.20219 -0.17721,0.36615 -0.39573,0.36615l-4.07211,0c-0.21852,0 -0.39573,-0.16396 -0.39573,-0.36615l0,-3.76773c0,-0.20219 0.17721,-0.36615 0.39573,-0.36615z"/>
    </g>
    <path stroke="null" id="svg_25" fill="#f5f5f5" d="m17.88151,13.67602l0,23.21418c0,1.21344 1.06294,2.19693 2.37441,2.19693l30.62989,0c1.31147,0 2.37441,-0.98349 2.37441,-2.19693l0,-23.21418l-35.37871,0z"/>
    <path stroke="null" id="svg_26" fill="#50758d" d="m27.37915,3.4237l0,5.85847c0,0.40423 -0.35458,0.73231 -0.79147,0.73231l-2.37441,0c-0.43689,0 -0.79147,-0.32807 -0.79147,-0.73231l0,-5.85847c0,-0.40423 0.35458,-0.73231 0.79147,-0.73231l2.37441,0c0.43689,0 0.79147,0.32807 0.79147,0.73231z"/>
    <path stroke="null" id="svg_27" fill="#ffac5c" d="m23.97583,18.5693l4.86358,0l0,4.50004l-4.86358,0l0,-4.50004z"/>
    <path stroke="null" id="svg_28" fill="#ffac5c" d="m42.30231,18.5693l4.86358,0l0,4.50004l-4.86358,0l0,-4.50004z"/>
    <path stroke="null" id="svg_29" fill="#ffac5c" d="m30.02661,18.5693l4.95064,0l0,4.50004l-4.95064,0l0,-4.50004z"/>
    <path stroke="null" id="svg_30" fill="#ffac5c" d="m23.97583,24.1678l4.86358,0l0,4.50077l-4.86358,0l0,-4.50077z"/>
    <path stroke="null" id="svg_31" fill="#e6e6e6" d="m42.30231,24.1678l4.86358,0l0,4.50077l-4.86358,0l0,-4.50077z"/>
    <path stroke="null" id="svg_32" fill="#ffac5c" d="m30.02661,24.1678l4.95064,0l0,4.50077l-4.95064,0l0,-4.50077z"/>
    <path stroke="null" id="svg_33" fill="#e6e6e6" d="m23.97583,29.76704l4.86358,0l0,4.50004l-4.86358,0l0,-4.50004z"/>
    <path stroke="null" id="svg_34" fill="#e6e6e6" d="m42.30231,29.76704l4.86358,0l0,4.50004l-4.86358,0l0,-4.50004z"/>
    <path stroke="null" id="svg_35" fill="#e6e6e6" d="m30.02661,29.76704l4.95064,0l0,4.50004l-4.95064,0l0,-4.50004z"/>
    <path stroke="null" id="svg_36" fill="#ffac5c" d="m36.16446,18.5693l4.95064,0l0,4.50004l-4.95064,0l0,-4.50004z"/>
    <path stroke="null" id="svg_37" fill="#ffac5c" d="m36.16446,24.1678l4.95064,0l0,4.50077l-4.95064,0l0,-4.50077z"/>
    <path stroke="null" id="svg_38" fill="#e6e6e6" d="m36.16446,29.76704l4.95064,0l0,4.50004l-4.95064,0l0,-4.50004z"/>
    <path stroke="null" id="svg_39" fill="#50758d" d="m47.71993,3.4237l0,5.85847c0,0.40423 -0.35458,0.73231 -0.79147,0.73231l-2.37441,0c-0.43689,0 -0.79147,-0.32807 -0.79147,-0.73231l0,-5.85847c0,-0.40423 0.35458,-0.73231 0.79147,-0.73231l2.37441,0c0.43689,0 0.79147,0.32807 0.79147,0.73231z"/>
    <path stroke="null" id="svg_40" fill="#e6e6e6" d="m17.88151,13.67602l0,23.21418c0,1.21344 1.06294,2.19693 2.37441,2.19693l0.87695,0c-1.10727,-0.18601 -1.94543,-1.08235 -1.94543,-2.16031l0,-21.69684c0.08944,-0.22335 0.32134,-0.38227 0.5936,-0.38227l33.47918,0l0,-1.13508l0,-0.03662l-35.37871,0l0,0.00001z"/>
    <path stroke="null" id="svg_41" fill="#2b597f" d="m25.47962,10.01447l-1.26635,0c-0.43689,0 -0.79147,-0.32807 -0.79147,-0.73231l0,-5.85847c0,-0.40423 0.35458,-0.73231 0.79147,-0.73231l0.47488,0l0,6.59078c0,0.40423 0.35458,0.73231 0.79147,0.73231z"/>
    <path stroke="null" id="svg_42" fill="#2b597f" d="m45.8204,10.01447l-1.26635,0c-0.43689,0 -0.79147,-0.32807 -0.79147,-0.73231l0,-5.85847c0,-0.40423 0.35458,-0.73231 0.79147,-0.73231l0.47488,0l0,6.59078c0,0.40423 0.35458,0.73231 0.79147,0.73231z"/>
   </g>
  </g>
  <g transform="rotate(0.399464 -44 205.505)" stroke="null" id="svg_79">
   <g stroke="null" id="svg_5">
    <path stroke="null" d="m45.28264,162.06761l0,19.8495l-178.56528,0l0,-19.8495c0,-2.96711 2.5886,-5.54497 6.3916,-6.83906c1.66981,-0.57228 3.57131,-0.89452 5.59265,-0.89452l154.59678,0c4.59796,0 8.5927,1.67045 10.59807,4.12457c0.88683,1.07754 1.38618,2.3046 1.38618,3.609z" fill="#fd646f" id="svg_44"/>
    <path stroke="null" d="m-85.34565,154.33404l0,14.436c0,1.42298 -1.78965,2.57786 -3.99475,2.57786l-18.37584,0c-2.2051,0 -3.99475,-1.15488 -3.99475,-2.57786l0,-14.436l26.36534,0z" fill="#fc4755" id="svg_45"/>
    <path stroke="null" d="m17.31939,154.33404l0,14.436c0,1.42298 -1.78965,2.57786 -3.99475,2.57786l-18.37584,0c-2.2051,0 -3.99475,-1.15488 -3.99475,-2.57786l0,-14.436l26.36534,0z" fill="#fc4755" id="svg_46"/>
    <path stroke="null" d="m-126.89104,155.22856l0,26.68856l-6.3916,0l0,-19.8495c0,-2.96711 2.5886,-5.54497 6.3916,-6.83906z" fill="#fc4755" id="svg_47"/>
    <g stroke="null" fill="#e6e6e6" id="svg_48">
     <path stroke="null" d="m-100.5257,197.33786l20.55298,0c1.10295,0 1.99737,0.57718 1.99737,1.28893l0,13.26308c0,0.71175 -0.89442,1.28893 -1.99737,1.28893l-20.55298,0c-1.10295,0 -1.99737,-0.57718 -1.99737,-1.28893l0,-13.26308c0,-0.71175 0.89442,-1.28893 1.99737,-1.28893z" id="svg_49"/>
     <path stroke="null" d="m-100.5257,217.04558l20.55298,0c1.10295,0 1.99737,0.57718 1.99737,1.28893l0,13.26566c0,0.71175 -0.89442,1.28893 -1.99737,1.28893l-20.55298,0c-1.10295,0 -1.99737,-0.57718 -1.99737,-1.28893l0,-13.26566c0,-0.71175 0.89442,-1.28893 1.99737,-1.28893z" id="svg_50"/>
     <path stroke="null" d="m-100.5257,236.75588l20.55298,0c1.10295,0 1.99737,0.57718 1.99737,1.28893l0,13.26308c0,0.71175 -0.89442,1.28893 -1.99737,1.28893l-20.55298,0c-1.10295,0 -1.99737,-0.57718 -1.99737,-1.28893l0,-13.26308c0,-0.71175 0.89442,-1.28893 1.99737,-1.28893z" id="svg_51"/>
     <path stroke="null" d="m-69.98584,197.33786l20.99241,0c1.10295,0 1.99737,0.57718 1.99737,1.28893l0,13.26308c0,0.71175 -0.89442,1.28893 -1.99737,1.28893l-20.99241,0c-1.10295,0 -1.99737,-0.57718 -1.99737,-1.28893l0,-13.26308c0,-0.71175 0.89442,-1.28893 1.99737,-1.28893z" id="svg_52"/>
     <path stroke="null" d="m-69.98584,217.04558l20.99241,0c1.10295,0 1.99737,0.57718 1.99737,1.28893l0,13.26566c0,0.71175 -0.89442,1.28893 -1.99737,1.28893l-20.99241,0c-1.10295,0 -1.99737,-0.57718 -1.99737,-1.28893l0,-13.26566c0,-0.71175 0.89442,-1.28893 1.99737,-1.28893z" id="svg_53"/>
     <path stroke="null" d="m-69.98584,236.75588l20.99241,0c1.10295,0 1.99737,0.57718 1.99737,1.28893l0,13.26308c0,0.71175 -0.89442,1.28893 -1.99737,1.28893l-20.99241,0c-1.10295,0 -1.99737,-0.57718 -1.99737,-1.28893l0,-13.26308c0,-0.71175 0.89442,-1.28893 1.99737,-1.28893z" id="svg_54"/>
     <path stroke="null" d="m-39.00656,197.33786l20.99241,0c1.10295,0 1.99737,0.57718 1.99737,1.28893l0,13.26308c0,0.71175 -0.89442,1.28893 -1.99737,1.28893l-20.99241,0c-1.10295,0 -1.99737,-0.57718 -1.99737,-1.28893l0,-13.26308c0,-0.71175 0.89442,-1.28893 1.99737,-1.28893z" id="svg_55"/>
     <path stroke="null" d="m-39.00656,217.04558l20.99241,0c1.10295,0 1.99737,0.57718 1.99737,1.28893l0,13.26566c0,0.71175 -0.89442,1.28893 -1.99737,1.28893l-20.99241,0c-1.10295,0 -1.99737,-0.57718 -1.99737,-1.28893l0,-13.26566c0,-0.71175 0.89442,-1.28893 1.99737,-1.28893z" id="svg_56"/>
     <path stroke="null" d="m-39.00656,236.75588l20.99241,0c1.10295,0 1.99737,0.57718 1.99737,1.28893l0,13.26308c0,0.71175 -0.89442,1.28893 -1.99737,1.28893l-20.99241,0c-1.10295,0 -1.99737,-0.57718 -1.99737,-1.28893l0,-13.26308c0,-0.71175 0.89442,-1.28893 1.99737,-1.28893z" id="svg_57"/>
     <path stroke="null" d="m14.52307,198.62679l0,13.26308c0,0.71175 -0.89442,1.28893 -1.99737,1.28893l-20.55298,0c-1.10295,0 -1.99737,-0.57718 -1.99737,-1.28893l0,-13.26308c0,-0.71175 0.89442,-1.28893 1.99737,-1.28893l20.55298,0c1.10295,0 1.99737,0.57718 1.99737,1.28893z" id="svg_58"/>
     <path stroke="null" d="m-8.02729,217.04558l20.55298,0c1.10295,0 1.99737,0.57718 1.99737,1.28893l0,13.26566c0,0.71175 -0.89442,1.28893 -1.99737,1.28893l-20.55298,0c-1.10295,0 -1.99737,-0.57718 -1.99737,-1.28893l0,-13.26566c0,-0.71175 0.89442,-1.28893 1.99737,-1.28893z" id="svg_59"/>
     <path stroke="null" d="m-8.02729,236.75588l20.55298,0c1.10295,0 1.99737,0.57718 1.99737,1.28893l0,13.26308c0,0.71175 -0.89442,1.28893 -1.99737,1.28893l-20.55298,0c-1.10295,0 -1.99737,-0.57718 -1.99737,-1.28893l0,-13.26308c0,-0.71175 0.89442,-1.28893 1.99737,-1.28893z" id="svg_60"/>
    </g>
    <path stroke="null" d="m-133.28264,180.11262l0,81.71809c0,4.27151 5.36495,7.73357 11.98425,7.73357l154.59678,0c6.6193,0 11.98425,-3.46206 11.98425,-7.73357l0,-81.71809l-178.56528,0z" fill="#f5f5f5" id="svg_61"/>
    <path stroke="null" d="m-85.34565,144.02261l0,20.62286c0,1.42298 -1.78965,2.57786 -3.99475,2.57786l-11.98425,0c-2.2051,0 -3.99475,-1.15488 -3.99475,-2.57786l0,-20.62286c0,-1.42298 1.78965,-2.57786 3.99475,-2.57786l11.98425,0c2.2051,0 3.99475,1.15488 3.99475,2.57786z" fill="#50758d" id="svg_62"/>
    <path stroke="null" d="m-102.52307,197.33786l24.54773,0l0,15.84094l-24.54773,0l0,-15.84094z" fill="#ffac5c" id="svg_63"/>
    <path stroke="null" d="m-10.02466,197.33786l24.54773,0l0,15.84094l-24.54773,0l0,-15.84094z" fill="#ffac5c" id="svg_64"/>
    <path stroke="null" d="m-71.98322,197.33786l24.98715,0l0,15.84094l-24.98715,0l0,-15.84094z" fill="#ffac5c" id="svg_65"/>
    <path stroke="null" d="m-102.52307,217.04558l24.54773,0l0,15.84351l-24.54773,0l0,-15.84351z" fill="#ffac5c" id="svg_66"/>
    <path stroke="null" d="m-10.02466,217.04558l24.54773,0l0,15.84351l-24.54773,0l0,-15.84351z" fill="#e6e6e6" id="svg_67"/>
    <path stroke="null" d="m-71.98322,217.04558l24.98715,0l0,15.84351l-24.98715,0l0,-15.84351z" fill="#ffac5c" id="svg_68"/>
    <path stroke="null" d="m-102.52307,236.75588l24.54773,0l0,15.84094l-24.54773,0l0,-15.84094z" fill="#e6e6e6" id="svg_69"/>
    <path stroke="null" d="m-10.02466,236.75588l24.54773,0l0,15.84094l-24.54773,0l0,-15.84094z" fill="#e6e6e6" id="svg_70"/>
    <path stroke="null" d="m-71.98322,236.75588l24.98715,0l0,15.84094l-24.98715,0l0,-15.84094z" fill="#e6e6e6" id="svg_71"/>
    <path stroke="null" d="m-41.00394,197.33786l24.98715,0l0,15.84094l-24.98715,0l0,-15.84094z" fill="#ffac5c" id="svg_72"/>
    <path stroke="null" d="m-41.00394,217.04558l24.98715,0l0,15.84351l-24.98715,0l0,-15.84351z" fill="#ffac5c" id="svg_73"/>
    <path stroke="null" d="m-41.00394,236.75588l24.98715,0l0,15.84094l-24.98715,0l0,-15.84094z" fill="#e6e6e6" id="svg_74"/>
    <path stroke="null" d="m17.31939,144.02261l0,20.62286c0,1.42298 -1.78965,2.57786 -3.99475,2.57786l-11.98425,0c-2.2051,0 -3.99475,-1.15488 -3.99475,-2.57786l0,-20.62286c0,-1.42298 1.78965,-2.57786 3.99475,-2.57786l11.98425,0c2.2051,0 3.99475,1.15488 3.99475,2.57786z" fill="#50758d" id="svg_75"/>
    <path stroke="null" d="m-133.28264,180.11262l0,81.71809c0,4.27151 5.36495,7.73357 11.98425,7.73357l4.42618,0c-5.58865,-0.65478 -9.81909,-3.81007 -9.81909,-7.60468l0,-76.37677c0.45141,-0.78625 1.62187,-1.34564 2.99606,-1.34564l168.97788,0l0,-3.99568l0,-0.12889l-178.56528,0z" fill="#e6e6e6" id="svg_76"/>
    <path stroke="null" d="m-94.93305,167.22333l-6.3916,0c-2.2051,0 -3.99475,-1.15488 -3.99475,-2.57786l0,-20.62286c0,-1.42298 1.78965,-2.57786 3.99475,-2.57786l2.39685,0l0,23.20072c0,1.42298 1.78965,2.57786 3.99475,2.57786z" fill="#2b597f" id="svg_77"/>
    <path stroke="null" d="m7.732,167.22333l-6.3916,0c-2.2051,0 -3.99475,-1.15488 -3.99475,-2.57786l0,-20.62286c0,-1.42298 1.78965,-2.57786 3.99475,-2.57786l2.39685,0l0,23.20072c0,1.42298 1.78965,2.57786 3.99475,2.57786z" fill="#2b597f" id="svg_78"/>
   </g>
  </g>
 </g>
</svg>